<?xml version="1.0" encoding="utf-8"?>
<!-- Generator: Adobe Illustrator 23.0.3, SVG Export Plug-In . SVG Version: 6.00 Build 0)  -->
<svg version="1.1" id="Calque_1" xmlns="http://www.w3.org/2000/svg" xmlns:xlink="http://www.w3.org/1999/xlink" x="0px" y="0px"
	 viewBox="0 0 55.3 55.3" style="enable-background:new 0 0 55.3 55.3;" xml:space="preserve">
<style type="text/css">
	.st0{fill:#004466;}
	.st1{fill:#0069B7;}
	.st2{fill:#A05000;}
	.st3{fill:#FF8800;}
</style>
<circle class="st0" cx="28.1" cy="28.1" r="27.1"/>
<circle class="st1" cx="27.1" cy="27.1" r="27.1"/>
<g>
	<path class="st2" d="M26.6,38.2c4.3,0,8.2-0.9,11.7-3.3c1.8-1.2,3.8-1.5,6-1.4c1.9,0.1,3.7,0.6,5.2,1.9c2,1.6,2,4.2,0,5.9
		c-1.4,1.2-3.1,1.9-4.9,2.1c-2.1,0.2-4.1,0.1-6-0.9c-0.8-0.4-1.5-0.9-2.2-1.3c-2.3-1.2-4.7-1.8-7.3-1.9c-3.6-0.2-7.1,0.2-10.4,1.6
		c-1.1,0.5-2.1,1.1-3.1,1.7c-2.2,1.4-4.6,1.5-7.1,1.1c-1.8-0.3-3.3-1.1-4.4-2.5C3,39.8,3,37.3,4.8,36c0.7-0.5,1.4-1,2.1-1.5
		c1.5-1.2,2.6-2.6,3.1-4.4c0.8-2.7,0.1-5.1-1.7-7.2c-0.8-0.9-1.7-1.5-2.6-2.3c-1.2-0.9-1.9-2.1-1.7-3.7c0.1-1,0.6-1.7,1.3-2.4
		c1.4-1.3,3-2,4.8-2.2c2.3-0.3,4.5-0.2,6.5,1.1c0.9,0.6,1.8,1.2,2.2,2.3c0.6,1.7,0.1,3.3-1.4,4.5c-0.9,0.7-1.9,1.4-2.7,2.1
		c-2.1,2-3.1,4.5-2.6,7.4c0.4,2.3,1.9,4,3.8,5.3C19.2,37.4,22.9,38.2,26.6,38.2z"/>
</g>
<g>
	<path class="st3" d="M26.6,37.2c4.3,0,8.2-0.9,11.7-3.3c1.8-1.2,3.8-1.5,6-1.4c1.9,0.1,3.7,0.6,5.2,1.9c2,1.6,2,4.2,0,5.9
		c-1.4,1.2-3.1,1.9-4.9,2.1c-2.1,0.2-4.1,0.1-6-0.9c-0.8-0.4-1.5-0.9-2.2-1.3c-2.3-1.2-4.7-1.8-7.3-1.9c-3.6-0.2-7.1,0.2-10.4,1.6
		c-1.1,0.5-2.1,1.1-3.1,1.7c-2.2,1.4-4.6,1.5-7.1,1.1c-1.8-0.3-3.3-1.1-4.4-2.5C3,38.8,3,36.4,4.8,35c0.7-0.5,1.4-1,2.1-1.5
		c1.5-1.2,2.6-2.6,3.1-4.4c0.8-2.7,0.1-5.1-1.7-7.2c-0.8-0.9-1.7-1.5-2.6-2.3c-1.2-0.9-1.9-2.1-1.7-3.7c0.1-1,0.6-1.7,1.3-2.4
		c1.4-1.3,3-2,4.8-2.2c2.3-0.3,4.5-0.2,6.5,1.1c0.9,0.6,1.8,1.2,2.2,2.3c0.6,1.7,0.1,3.3-1.4,4.5c-0.9,0.7-1.9,1.4-2.7,2.1
		c-2.1,2-3.1,4.5-2.6,7.4c0.4,2.3,1.9,4,3.8,5.3C19.2,36.4,22.9,37.2,26.6,37.2z"/>
</g>
<g>
	<g>
		<path class="st3" d="M15,24.7v-1.5h5.6v1.5H15z M15,32.1v-1.5h5.6v1.5H15z M17,32.1v-8.9h1.6v8.9H17z"/>
		<path class="st3" d="M22.3,32.1v-8.9H24v8.9H22.3z M23.9,28.9v-1.5h1.6c0.4,0,0.7-0.1,0.9-0.3s0.3-0.5,0.3-1c0-0.4-0.1-0.7-0.3-1
			c-0.2-0.2-0.5-0.3-0.9-0.3h-1.6l-0.1-1.5h1.7c1,0,1.7,0.2,2.2,0.7c0.5,0.5,0.8,1.1,0.8,2c0,0.9-0.3,1.6-0.8,2.2
			c-0.5,0.5-1.3,0.8-2.2,0.8H23.9z M26.8,32.1l-1.7-4.2h1.7l1.9,4.2H26.8z"/>
		<path class="st3" d="M32.5,32.2c-0.5,0-1,0-1.5-0.1c-0.5-0.1-0.9-0.2-1.3-0.4l0.2-1.7c0.5,0.2,0.9,0.3,1.4,0.4
			c0.5,0.1,0.9,0.2,1.3,0.2c0.4,0,0.8-0.1,1-0.2S34,30,34,29.7c0-0.4-0.2-0.7-0.7-0.9L32,28.2c-0.6-0.3-1.1-0.7-1.5-1.1
			c-0.3-0.5-0.5-1-0.5-1.5c0-0.8,0.3-1.4,0.8-1.8c0.5-0.4,1.2-0.6,2.2-0.6c0.5,0,1.1,0.1,1.5,0.3c0.5,0.2,0.9,0.5,1.3,0.8l-1.1,1.3
			c-0.3-0.3-0.6-0.5-0.9-0.6s-0.6-0.2-0.8-0.2c-0.4,0-0.7,0.1-0.9,0.2c-0.2,0.2-0.3,0.4-0.3,0.7c0,0.2,0.1,0.4,0.2,0.6
			c0.1,0.2,0.3,0.3,0.6,0.5l1.2,0.6c0.6,0.3,1.1,0.7,1.4,1.1c0.3,0.4,0.5,0.9,0.5,1.4c0,0.8-0.3,1.4-0.8,1.8
			C34.3,32,33.5,32.2,32.5,32.2z"/>
		<path class="st3" d="M41.2,32.2c-2.8,0-4.2-1.5-4.2-4.6c0-1.4,0.4-2.6,1.1-3.4s1.7-1.2,3-1.2c0.6,0,1.1,0.1,1.6,0.3
			c0.5,0.2,0.8,0.5,1,0.8l-0.9,1.2c-0.2-0.2-0.4-0.4-0.7-0.5s-0.6-0.2-0.9-0.2c-0.7,0-1.3,0.3-1.7,0.8c-0.4,0.5-0.6,1.2-0.6,2.1
			c0,2,0.9,3.1,2.7,3.1c0.6,0,1.2-0.1,1.8-0.4l0.3,1.5C42.8,32.1,42,32.2,41.2,32.2z"/>
		<path class="st3" d="M44.8,32.1v-8.9h1.6v8.9H44.8z M48.2,32.1l-1.6-6.9H46v-1.9h1.3l1.6,6.9h0.4v1.9H48.2z M49.1,32.1v-8.9h1.6
			v8.9H49.1z"/>
	</g>
</g>
<g>
	<g>
		<path d="M15,23.9v-1.5h5.6v1.5H15z M15,31.3v-1.5h5.6v1.5H15z M17,31.3v-8.9h1.6v8.9H17z"/>
		<path d="M22.3,31.3v-8.9H24v8.9H22.3z M23.9,28v-1.5h1.6c0.4,0,0.7-0.1,0.9-0.3s0.3-0.5,0.3-1c0-0.4-0.1-0.7-0.3-1
			c-0.2-0.2-0.5-0.3-0.9-0.3h-1.6l-0.1-1.5h1.7c1,0,1.7,0.2,2.2,0.7c0.5,0.5,0.8,1.1,0.8,2c0,0.9-0.3,1.6-0.8,2.2
			c-0.5,0.5-1.3,0.8-2.2,0.8H23.9z M26.8,31.3l-1.7-4.2h1.7l1.9,4.2H26.8z"/>
		<path d="M32.5,31.4c-0.5,0-1,0-1.5-0.1c-0.5-0.1-0.9-0.2-1.3-0.4l0.2-1.7c0.5,0.2,0.9,0.3,1.4,0.4c0.5,0.1,0.9,0.2,1.3,0.2
			c0.4,0,0.8-0.1,1-0.2s0.4-0.4,0.4-0.7c0-0.4-0.2-0.7-0.7-0.9L32,27.4c-0.6-0.3-1.1-0.7-1.5-1.1c-0.3-0.5-0.5-1-0.5-1.5
			c0-0.8,0.3-1.4,0.8-1.8c0.5-0.4,1.2-0.6,2.2-0.6c0.5,0,1.1,0.1,1.5,0.3c0.5,0.2,0.9,0.5,1.3,0.8l-1.1,1.3
			c-0.3-0.3-0.6-0.5-0.9-0.6s-0.6-0.2-0.8-0.2c-0.4,0-0.7,0.1-0.9,0.2c-0.2,0.2-0.3,0.4-0.3,0.7c0,0.2,0.1,0.4,0.2,0.6
			c0.1,0.2,0.3,0.3,0.6,0.5l1.2,0.6c0.6,0.3,1.1,0.7,1.4,1.1c0.3,0.4,0.5,0.9,0.5,1.4c0,0.8-0.3,1.4-0.8,1.8
			C34.3,31.2,33.5,31.4,32.5,31.4z"/>
		<path d="M41.2,31.4c-2.8,0-4.2-1.5-4.2-4.6c0-1.4,0.4-2.6,1.1-3.4s1.7-1.2,3-1.2c0.6,0,1.1,0.1,1.6,0.3c0.5,0.2,0.8,0.5,1,0.8
			l-0.9,1.2c-0.2-0.2-0.4-0.4-0.7-0.5s-0.6-0.2-0.9-0.2c-0.7,0-1.3,0.3-1.7,0.8c-0.4,0.5-0.6,1.2-0.6,2.1c0,2,0.9,3.1,2.7,3.1
			c0.6,0,1.2-0.1,1.8-0.4l0.3,1.5C42.8,31.3,42,31.4,41.2,31.4z"/>
		<path d="M44.8,31.3v-8.9h1.6v8.9H44.8z M48.2,31.3l-1.6-6.9H46v-1.9h1.3l1.6,6.9h0.4v1.9H48.2z M49.1,31.3v-8.9h1.6v8.9H49.1z"/>
	</g>
</g>
</svg>
